<?xml version="1.0" encoding="utf-8"?>
<!-- Generator: Adobe Illustrator 19.1.0, SVG Export Plug-In . SVG Version: 6.00 Build 0)  -->
<svg version="1.1" id="Calque_1" xmlns="http://www.w3.org/2000/svg" xmlns:xlink="http://www.w3.org/1999/xlink" x="0px" y="0px"
	 viewBox="0 0 125.9 88.5" style="enable-background:new 0 0 125.9 88.5;" xml:space="preserve">
<style type="text/css">
	.st0{fill:#E1E1E1;}
	.st1{fill:#FFFFFF;}
</style>
<g>
	<path class="st0" d="M68.4,7.1L68.4,7.1c-14.2-9.2-33.1-9.8-48.2,0C-0.3,20.4-6.2,47.9,7.1,68.4c13.3,20.5,40.7,26.3,61.2,13
		L125.9,44L68.4,7.1z"/>
	<path class="st1" d="M32.4,31.9c4.6-4.6,12.2-6.5,19.4-1.4L30.5,51.8C25.1,42.9,29,35.3,32.4,31.9 M61,48.7c-0.5,2.6-2,5.2-4.3,7.5
		c-6.6,6.6-15.6,4.8-18.5,2.7L68.1,29c-1-1.5-2.3-3.4-4.1-5.2c-9.7-9.7-27.9-12.5-40.1-0.3C12,35.3,13.6,53.7,24.5,64.6
		c11.2,11.2,29.3,11.5,40.7,0.1c4.5-4.5,7-10.2,7.8-15.9H61z"/>
</g>
</svg>
